<?xml version="1.0" standalone="no"?>
<!DOCTYPE svg PUBLIC "-//W3C//DTD SVG 20010904//EN"
 "http://www.w3.org/TR/2001/REC-SVG-20010904/DTD/svg10.dtd">
<svg version="1.0" xmlns="http://www.w3.org/2000/svg"
 width="700.000000pt" height="700.000000pt" viewBox="0 0 700.000000 700.000000"
 preserveAspectRatio="xMidYMid meet">
<metadata>
Created by potrace 1.11, written by Peter Selinger 2001-2013
</metadata>
<g transform="translate(0.000000,700.000000) scale(0.100000,-0.100000)"
fill="#000000" stroke="none">
<path d="M3238 6995 c-2 -1 -43 -5 -91 -9 -49 -3 -91 -7 -95 -10 -4 -2 -34 -7
-67 -11 -32 -3 -62 -8 -65 -10 -3 -2 -24 -6 -45 -9 -149 -18 -532 -130 -692
-202 -17 -8 -33 -14 -36 -14 -13 0 -303 -143 -378 -186 -197 -113 -404 -260
-565 -399 -154 -134 -369 -361 -465 -490 -24 -33 -50 -66 -57 -73 -22 -24
-176 -263 -230 -358 -109 -192 -215 -437 -294 -679 -30 -93 -83 -293 -93 -355
-3 -19 -10 -53 -15 -75 -32 -148 -45 -327 -45 -625 1 -263 4 -321 29 -500 54
-382 204 -825 399 -1175 288 -518 691 -948 1189 -1269 48 -31 91 -56 95 -56 3
0 14 -6 22 -14 28 -25 284 -153 409 -205 186 -78 497 -177 617 -196 11 -2 45
-8 75 -14 81 -15 110 -20 160 -27 25 -3 54 -8 64 -10 99 -19 561 -25 731 -11
199 18 379 48 570 97 442 113 803 282 1199 560 105 74 306 247 416 358 310
313 544 657 728 1069 113 252 226 642 257 884 4 30 8 56 10 59 11 17 20 238
20 465 0 238 -6 362 -20 455 -3 19 -7 51 -10 70 -5 37 -8 53 -25 135 -6 28
-12 59 -14 70 -30 153 -127 458 -201 629 -192 448 -448 823 -782 1147 -198
192 -451 383 -673 509 -52 29 -111 64 -131 77 -19 12 -39 23 -43 23 -5 0 -52
21 -104 46 -248 119 -625 242 -861 280 -18 3 -41 7 -50 9 -9 1 -52 8 -96 15
-44 7 -91 14 -105 17 -28 4 -637 13 -642 8z m507 -379 c61 -4 117 -9 125 -11
8 -2 44 -7 80 -10 68 -7 91 -11 118 -19 9 -3 33 -7 52 -10 80 -12 317 -76 380
-103 8 -3 20 -7 25 -9 26 -6 198 -76 265 -106 148 -69 176 -83 266 -133 337
-191 702 -512 941 -830 154 -205 265 -397 373 -643 86 -199 175 -480 195 -617
3 -22 8 -47 11 -55 3 -8 7 -33 10 -55 3 -22 9 -69 14 -105 31 -222 31 -583 -1
-822 -5 -43 -12 -91 -14 -107 -43 -342 -234 -827 -470 -1196 -49 -76 -166
-237 -182 -250 -6 -5 -26 -28 -43 -50 -56 -71 -293 -307 -395 -394 -66 -56
-308 -231 -318 -231 -2 0 -45 -25 -94 -55 -300 -180 -745 -341 -1083 -390 -19
-3 -44 -7 -55 -10 -60 -12 -238 -19 -460 -19 -293 0 -386 7 -545 39 -49 10
-75 15 -104 20 -82 16 -398 110 -451 135 -11 5 -56 24 -100 41 -276 112 -673
363 -860 542 -7 6 -39 37 -71 68 -235 226 -379 403 -526 650 -187 313 -321
648 -388 969 -22 107 -25 123 -36 220 -3 30 -8 57 -9 60 -5 9 -18 284 -19 380
0 78 11 281 20 374 3 34 36 233 48 291 80 389 306 876 558 1208 289 380 676
704 1083 905 230 114 569 238 730 267 17 3 44 7 60 10 17 3 37 8 45 10 37 11
256 36 365 41 66 4 121 8 122 9 5 3 227 -3 338 -9z"/>
<path d="M3298 6215 c-2 -2 -37 -6 -78 -9 -42 -4 -84 -8 -95 -10 -11 -2 -56
-9 -100 -16 -113 -16 -301 -66 -360 -95 -79 -38 -195 -166 -263 -288 -117
-210 -151 -559 -86 -877 70 -338 224 -596 575 -965 42 -44 91 -96 109 -115 18
-19 96 -102 175 -185 78 -82 168 -179 200 -215 32 -36 73 -82 92 -102 l34 -37
82 92 c45 50 89 99 97 108 95 102 172 183 316 334 290 305 368 397 469 555
130 202 197 382 241 645 13 79 11 344 -3 437 -24 156 -84 311 -162 418 -46 64
-145 161 -189 187 -39 23 -207 75 -287 88 -141 25 -172 29 -275 42 -43 5 -488
12 -492 8z"/>
<path d="M1014 4614 c-14 -32 -30 -68 -34 -79 -47 -105 -141 -438 -156 -550
-3 -27 -8 -53 -10 -56 -4 -7 -13 -73 -24 -184 -8 -86 -6 -489 3 -530 2 -11 8
-47 12 -80 5 -47 36 -216 49 -270 209 -859 805 -1549 1631 -1888 112 -46 265
-97 290 -97 7 0 21 21 31 47 63 172 100 237 190 329 70 72 128 113 227 159 91
43 112 47 278 47 163 0 206 -7 292 -53 10 -6 35 -19 56 -30 59 -30 167 -124
209 -181 58 -80 87 -135 118 -223 15 -44 33 -83 38 -87 15 -10 47 -3 131 26
216 75 381 151 570 264 61 36 112 68 115 72 3 3 43 34 90 67 121 88 159 121
300 263 149 149 202 210 302 350 67 94 89 129 150 235 38 64 132 264 164 345
67 175 134 423 150 565 4 27 8 52 9 55 11 18 20 192 20 370 0 182 -6 291 -19
370 -2 14 -10 59 -16 100 -7 41 -18 100 -26 130 -8 30 -17 68 -20 84 -9 53
-111 349 -144 421 l-32 70 -16 -35 c-124 -274 -189 -388 -320 -562 -127 -169
-169 -214 -635 -689 -313 -318 -424 -437 -497 -534 -47 -63 -115 -162 -138
-205 -150 -269 -222 -502 -238 -765 -4 -55 -8 -102 -10 -104 -2 -2 -45 39 -96
90 -96 97 -161 142 -270 187 -60 26 -71 27 -238 27 -166 -1 -178 -2 -238 -27
-108 -45 -173 -90 -267 -185 -51 -51 -94 -93 -97 -93 -2 0 -6 21 -7 48 -5 98
-21 243 -27 254 -3 4 -7 26 -10 50 -4 24 -10 51 -15 61 -6 9 -7 17 -5 17 3 0
-12 51 -34 113 -47 132 -125 288 -202 407 -117 180 -171 239 -748 828 -248
252 -303 311 -392 417 -146 175 -296 419 -373 606 -18 44 -35 83 -39 86 -3 3
-17 -21 -32 -53z"/>
</g>
</svg>
