<?xml version="1.0" standalone="no"?>
<!DOCTYPE svg PUBLIC "-//W3C//DTD SVG 20010904//EN"
 "http://www.w3.org/TR/2001/REC-SVG-20010904/DTD/svg10.dtd">
<svg version="1.0" xmlns="http://www.w3.org/2000/svg"
 width="700.000000pt" height="700.000000pt" viewBox="0 0 700.000000 700.000000"
 preserveAspectRatio="xMidYMid meet">
<metadata>
Created by potrace 1.11, written by Peter Selinger 2001-2013
</metadata>
<g transform="translate(0.000000,700.000000) scale(0.100000,-0.100000)"
fill="#000000" stroke="none">
<path d="M3367 6614 c-1 -1 -59 -4 -128 -8 -70 -3 -133 -8 -140 -10 -8 -3 -34
-7 -59 -10 -25 -4 -58 -8 -75 -11 -16 -3 -41 -7 -55 -9 -182 -29 -567 -151
-725 -229 -16 -8 -57 -28 -90 -43 -85 -39 -252 -135 -356 -204 -81 -53 -238
-169 -265 -195 -6 -5 -42 -37 -79 -70 -148 -130 -311 -306 -428 -463 -72 -97
-137 -191 -137 -198 0 -1 -13 -22 -29 -46 -72 -108 -194 -354 -243 -488 -10
-30 -23 -64 -28 -75 -71 -170 -156 -528 -177 -745 -10 -102 -10 -580 -1 -665
15 -127 32 -233 54 -330 139 -601 420 -1117 837 -1539 187 -188 393 -356 570
-462 27 -16 65 -39 85 -52 195 -120 545 -264 793 -326 137 -34 150 -37 359
-71 22 -3 76 -9 200 -21 52 -5 388 -4 440 1 25 2 70 6 100 9 103 9 279 38 380
61 14 3 34 8 45 10 146 31 438 134 601 212 822 391 1419 1092 1678 1973 30
100 82 334 90 405 4 28 9 68 11 90 3 22 8 60 10 85 6 59 6 501 0 565 -13 139
-16 165 -50 350 -3 17 -21 90 -40 163 -70 267 -188 553 -322 780 -24 41 -43
76 -43 78 0 3 -5 10 -10 17 -6 7 -37 52 -70 102 -96 145 -216 290 -360 435
-145 147 -158 158 -297 267 -420 330 -972 566 -1488 638 -23 3 -52 8 -65 10
-45 9 -484 26 -493 19z m383 -348 c25 -3 72 -8 105 -11 395 -44 917 -251 1255
-499 164 -120 360 -298 470 -426 12 -14 31 -36 43 -50 87 -100 214 -282 291
-419 141 -248 283 -634 320 -871 33 -205 40 -293 40 -515 0 -153 -8 -317 -19
-370 -2 -11 -7 -40 -10 -65 -43 -370 -245 -858 -499 -1210 -112 -155 -322
-378 -488 -518 -393 -329 -941 -563 -1452 -619 -91 -10 -555 -10 -662 0 -87 7
-219 33 -356 67 -447 113 -883 348 -1197 645 -329 311 -510 565 -694 976 -40
89 -107 278 -133 379 -17 66 -54 250 -59 302 -4 35 -9 65 -10 68 -7 12 -18
239 -18 360 0 111 8 259 18 330 2 14 6 50 10 80 3 30 11 74 16 98 5 23 12 59
15 80 14 87 105 361 170 512 196 456 510 850 914 1150 337 249 825 452 1219
506 25 3 57 8 71 10 14 2 63 7 110 10 47 3 86 7 88 9 4 4 394 -4 442 -9z"/>
<path d="M3330 5909 c-178 -10 -324 -33 -479 -74 -123 -33 -148 -46 -211 -108
-204 -199 -280 -460 -247 -837 27 -299 160 -584 401 -857 61 -68 255 -276 400
-427 27 -28 85 -91 130 -141 44 -49 97 -107 117 -129 l36 -39 39 43 c46 52
144 160 159 176 5 6 73 78 150 159 77 82 154 163 170 179 100 101 245 272 306
359 101 145 204 366 224 478 3 18 8 36 10 39 3 4 7 23 10 41 3 19 8 50 11 69
10 61 13 323 4 375 -18 105 -21 121 -36 170 -25 80 -72 176 -117 235 -59 80
-145 160 -191 181 -40 17 -206 61 -276 73 -128 21 -150 24 -260 31 -142 10
-223 11 -350 4z"/>
<path d="M1243 4464 c-102 -230 -176 -530 -199 -809 -5 -65 -5 -315 1 -375 10
-101 26 -214 42 -285 8 -38 17 -82 19 -97 11 -61 85 -281 133 -393 254 -590
747 -1064 1356 -1303 140 -55 217 -77 238 -69 7 2 23 36 36 73 35 100 81 181
145 252 37 40 149 118 221 153 l70 34 171 0 171 0 94 -47 c164 -82 266 -194
335 -371 24 -59 44 -97 53 -97 25 0 153 41 254 81 536 214 1013 648 1262 1149
20 41 47 95 60 120 47 92 127 344 160 499 12 59 18 93 31 181 9 65 18 215 18
310 0 162 -10 282 -40 453 -9 55 -45 202 -60 248 -8 25 -16 54 -19 65 -7 32
-62 179 -90 240 l-27 58 -25 -64 c-37 -91 -126 -261 -188 -355 -105 -162 -220
-295 -520 -600 -250 -256 -397 -407 -465 -481 -288 -310 -449 -689 -459 -1079
-1 -30 -2 -30 -64 35 -91 94 -143 134 -232 177 -80 38 -80 38 -225 40 -162 3
-193 -2 -300 -55 -55 -27 -100 -61 -172 -131 l-98 -93 -1 58 c0 33 -2 66 -3
74 -2 8 -6 42 -10 75 -3 33 -10 75 -15 93 -5 17 -8 32 -6 32 2 0 -2 19 -11 41
-8 23 -16 54 -19 68 -4 26 -11 43 -60 161 -48 115 -132 257 -222 377 -47 62
-188 214 -394 425 -473 483 -513 526 -612 656 -104 138 -228 358 -293 521 -9
22 -12 19 -41 -45z"/>
</g>
</svg>
